<svg width="500" height="500" xmlns="http://www.w3.org/2000/svg" xmlns:bx="https://boxy-svg.com"> <defs> <mask id="circle-mask"> <rect width="500" height="500" fill="white"/> <circle cx="500" cy="250" r="70"/> </mask> <bx:grid x="0" y="0" width="83.36" height="96.753"/> </defs> <rect width="500" height="500" fill="#2a6699" mask="url(#circle-mask)"/> <g fill="#fefdff" fill-opacity="1"> <g transform="translate(98.512824, 354.131869)"> <g/> </g> </g> <g fill="#fefdff" fill-opacity="1"> <g transform="translate(165.285775, 354.131869)"> <g/> </g> </g> <g fill="#fefdff" fill-opacity="1"> <g transform="translate(235.60963, 354.131869)"> <g/> </g> </g> <g fill="#fefdff" fill-opacity="1"> <g transform="translate(311.837626, 354.131869)"> <g/> </g> </g> <path d="M 391.07 375 L 386.842 355.4 L 389.026 355.4 L 392.358 371.584 L 397.202 355.4 L 399.302 355.4 L 404.146 371.528 L 407.506 355.4 L 409.606 355.4 L 405.378 375 L 403.194 375 L 398.238 358.396 L 393.254 375 Z M 412.714 375 L 412.714 355.4 L 426.742 355.4 L 426.742 357.304 L 414.87 357.304 L 414.87 364.164 L 422.626 364.164 L 422.626 366.04 L 414.87 366.04 L 414.87 373.096 L 426.854 373.096 L 426.854 375 Z M 429.961 375 L 429.961 355.4 L 437.913 355.4 Q 439.817 355.4 441.203 356.016 Q 442.589 356.632 443.345 357.766 Q 444.101 358.9 444.101 360.44 Q 444.101 361.952 443.303 363.072 Q 442.505 364.192 441.105 364.78 Q 442.869 365.312 443.891 366.544 Q 444.913 367.776 444.913 369.484 Q 444.913 371.164 444.087 372.41 Q 443.261 373.656 441.763 374.328 Q 440.265 375 438.249 375 Z M 432.117 363.94 L 437.801 363.94 Q 439.705 363.94 440.839 363.044 Q 441.973 362.148 441.973 360.608 Q 441.973 359.068 440.839 358.172 Q 439.705 357.276 437.801 357.276 L 432.117 357.276 Z M 432.117 373.124 L 438.081 373.124 Q 440.209 373.124 441.469 372.116 Q 442.729 371.108 442.729 369.428 Q 442.729 367.748 441.469 366.74 Q 440.209 365.732 438.081 365.732 L 432.117 365.732 Z" transform="matrix(5.194462, 0, 0, 4.646009, -1985.117065, -1285.859375)" style="fill: rgb(255, 255, 255);"/> <path d="M 456.339 375.28 Q 453.679 375.28 451.733 374.216 Q 449.787 373.152 448.723 371.178 Q 447.659 369.204 447.659 366.544 L 447.659 355.4 L 451.719 355.4 L 451.719 366.544 Q 451.719 368.056 452.293 369.19 Q 452.867 370.324 453.917 370.926 Q 454.967 371.528 456.367 371.528 Q 457.767 371.528 458.803 370.926 Q 459.839 370.324 460.413 369.19 Q 460.987 368.056 460.987 366.544 L 460.987 355.4 L 465.019 355.4 L 465.019 366.544 Q 465.019 369.176 463.955 371.15 Q 462.891 373.124 460.945 374.202 Q 458.999 375.28 456.339 375.28 Z M 468.266 375 L 468.266 355.4 L 472.326 355.4 L 472.326 375 Z" transform="matrix(5.194462, 0, 0, 4.646009, -1985.117065, -1285.859375)" style="fill: rgb(255, 255, 255);"/></svg>